<svg width="92" height="36" viewBox="0 0 92 36" fill="none" xmlns="http://www.w3.org/2000/svg">
<path fill-rule="evenodd" clip-rule="evenodd" d="M20.7313 4.26901C18.0155 3.72882 15.2006 4.00607 12.6424 5.0657C10.0843 6.12532 7.89776 7.91974 6.35942 10.222C4.82108 12.5243 4 15.2311 4 18C4 20.7689 4.82109 23.4757 6.35943 25.778C7.89777 28.0803 10.0843 29.8747 12.6424 30.9343C15.2006 31.9939 18.0155 32.2712 20.7313 31.731C23.447 31.1908 25.9416 29.8574 27.8995 27.8995C28.6805 27.1185 29.9469 27.1185 30.7279 27.8995C31.509 28.6805 31.509 29.9469 30.7279 30.7279C28.2106 33.2453 25.0033 34.9596 21.5116 35.6541C18.02 36.3487 14.4008 35.9922 11.1117 34.6298C7.82263 33.2675 5.01141 30.9604 3.03355 28.0003C1.05568 25.0402 0 21.5601 0 18C0 14.4399 1.05568 10.9598 3.03355 7.99975C5.01141 5.03966 7.82263 2.73256 11.1117 1.37018C14.4008 0.00779963 18.02 -0.348661 21.5116 0.345873C25.0033 1.04041 28.2106 2.75474 30.7279 5.27208C31.509 6.05313 31.509 7.31946 30.7279 8.10051C29.9469 8.88156 28.6805 8.88156 27.8995 8.10051C25.9416 6.14258 23.447 4.80921 20.7313 4.26901Z" fill="#4B6AA8"/>
<path fill-rule="evenodd" clip-rule="evenodd" d="M40.845 23.048C41.1761 23.048 41.5232 23.0587 41.8864 23.08C42.2602 23.1013 42.6287 23.128 42.9918 23.16C43.3549 23.192 43.6967 23.2293 44.0171 23.272L43.921 24.024C43.4404 23.992 42.9491 23.9707 42.4471 23.96C41.9451 23.9387 41.4538 23.928 40.9732 23.928C40.4606 23.9173 40.0494 23.9333 39.7396 23.976C39.4406 24.008 39.2163 24.1147 39.0668 24.296C38.9279 24.4667 38.8585 24.7547 38.8585 25.16C38.8585 25.6187 38.96 25.9333 39.1629 26.104C39.3658 26.264 39.6649 26.3813 40.06 26.456L42.4471 26.904C43.0452 27.0213 43.4884 27.2347 43.7768 27.544C44.0758 27.8533 44.2254 28.328 44.2254 28.968C44.2254 29.6187 44.1079 30.0987 43.8729 30.408C43.6379 30.7173 43.2802 30.92 42.7995 31.016C42.3189 31.1227 41.7208 31.176 41.0052 31.176C40.6955 31.176 40.279 31.1653 39.7556 31.144C39.243 31.1227 38.6716 31.064 38.0415 30.968L38.1216 30.232C38.4099 30.2427 38.6983 30.2587 38.9867 30.28C39.275 30.2907 39.5687 30.3013 39.8678 30.312H40.829C41.4378 30.3013 41.9184 30.2693 42.2709 30.216C42.6233 30.152 42.8743 30.024 43.0238 29.832C43.1734 29.64 43.2481 29.352 43.2481 28.968C43.2481 28.52 43.1253 28.216 42.8796 28.056C42.6447 27.896 42.3403 27.7787 41.9665 27.704L39.5954 27.272C39.2003 27.1867 38.8745 27.064 38.6182 26.904C38.3619 26.7333 38.1696 26.5093 38.0415 26.232C37.924 25.944 37.8652 25.5867 37.8652 25.16C37.8652 24.5413 37.972 24.0827 38.1856 23.784C38.3993 23.4747 38.725 23.272 39.1629 23.176C39.6008 23.08 40.1615 23.0373 40.845 23.048ZM52.458 23.24V20.904H51.4487V23.2459L50.0389 23.32V24.072H51.4487V29.192C51.4487 29.8213 51.6089 30.3013 51.9293 30.632C52.2604 30.9627 52.741 31.128 53.3712 31.128C53.4887 31.128 53.6435 31.1227 53.8358 31.112C54.028 31.1013 54.2256 31.08 54.4285 31.048C54.6421 31.0267 54.829 30.9947 54.9893 30.952L54.8611 30.2H53.5955C53.211 30.2 52.9226 30.1093 52.7304 29.928C52.5488 29.7467 52.458 29.4587 52.458 29.064V24.072H55.0854V23.24H52.458ZM64.9402 23.048C65.4742 23.048 65.9228 23.128 66.2859 23.288C66.6598 23.4373 66.9428 23.688 67.135 24.04C67.3273 24.3813 67.4234 24.8453 67.4234 25.432V31H66.6224L66.494 29.6415C66.3944 29.7374 66.277 29.8383 66.1418 29.944C65.9068 30.136 65.6291 30.3227 65.3087 30.504C64.999 30.6853 64.6519 30.8347 64.2674 30.952C63.8936 31.0693 63.5037 31.128 63.0979 31.128C62.6493 31.128 62.2595 31.048 61.9284 30.888C61.5973 30.728 61.3356 30.4933 61.1434 30.184C60.9618 29.864 60.871 29.48 60.871 29.032V28.136C60.871 27.5387 61.0472 27.08 61.3997 26.76C61.7628 26.4293 62.2701 26.264 62.9216 26.264H66.3981V25.432C66.3981 24.9413 66.2806 24.568 66.0456 24.312C65.8213 24.056 65.3888 23.928 64.748 23.928C64.278 23.928 63.7333 23.9493 63.1139 23.992C62.4944 24.0347 61.891 24.088 61.3036 24.152L61.2074 23.4C61.5706 23.336 61.9551 23.2827 62.3609 23.24C62.7668 23.1867 63.1886 23.144 63.6265 23.112C64.0644 23.0693 64.5023 23.048 64.9402 23.048ZM66.3981 27.036V28.9294C66.1645 29.1385 65.9081 29.3273 65.6291 29.496C65.2232 29.7413 64.8121 29.928 64.3955 30.056C63.9897 30.184 63.6159 30.2427 63.2741 30.232C62.8148 30.232 62.4731 30.1253 62.2488 29.912C62.0245 29.6987 61.9123 29.3733 61.9123 28.936V28.264C61.9123 27.8907 62.0031 27.6027 62.1847 27.4C62.3769 27.1867 62.676 27.0747 63.0818 27.064L66.3981 27.036ZM75.4341 24.5476L75.3202 23.24H74.5352V31H75.5445V25.2152C76.1867 24.8377 76.7367 24.5473 77.1946 24.344C77.6859 24.12 78.1826 24.008 78.6845 24.008H79.069L79.1972 23.048H78.8608C78.3054 23.048 77.734 23.1867 77.1466 23.464C76.5807 23.7312 76.0099 24.0924 75.4341 24.5476ZM87.8407 23.048C88.1718 23.048 88.5189 23.0587 88.8821 23.08C89.2559 23.1013 89.6244 23.128 89.9875 23.16C90.3506 23.192 90.6924 23.2293 91.0128 23.272L90.9167 24.024C90.4361 23.992 89.9448 23.9707 89.4428 23.96C88.9408 23.9387 88.4495 23.928 87.9689 23.928C87.4562 23.9173 87.0451 23.9333 86.7353 23.976C86.4363 24.008 86.212 24.1147 86.0625 24.296C85.9236 24.4667 85.8542 24.7547 85.8542 25.16C85.8542 25.6187 85.9557 25.9333 86.1586 26.104C86.3615 26.264 86.6606 26.3813 87.0557 26.456L89.4428 26.904C90.0409 27.0213 90.4841 27.2347 90.7725 27.544C91.0715 27.8533 91.2211 28.328 91.2211 28.968C91.2211 29.6187 91.1036 30.0987 90.8686 30.408C90.6336 30.7173 90.2759 30.92 89.7952 31.016C89.3146 31.1227 88.7165 31.176 88.0009 31.176C87.6912 31.176 87.2747 31.1653 86.7514 31.144C86.2387 31.1227 85.6673 31.064 85.0372 30.968L85.1173 30.232C85.4056 30.2427 85.694 30.2587 85.9824 30.28C86.2707 30.2907 86.5644 30.3013 86.8635 30.312H87.8247C88.4335 30.3013 88.9141 30.2693 89.2666 30.216C89.619 30.152 89.87 30.024 90.0195 29.832C90.1691 29.64 90.2438 29.352 90.2438 28.968C90.2438 28.52 90.121 28.216 89.8753 28.056C89.6404 27.896 89.336 27.7787 88.9622 27.704L86.5911 27.272C86.196 27.1867 85.8702 27.064 85.6139 26.904C85.3576 26.7333 85.1653 26.5093 85.0372 26.232C84.9197 25.944 84.8609 25.5867 84.8609 25.16C84.8609 24.5413 84.9677 24.0827 85.1813 23.784C85.3949 23.4747 85.7207 23.272 86.1586 23.176C86.5965 23.08 87.1572 23.0373 87.8407 23.048Z" fill="#10A9A0"/>
<path fill-rule="evenodd" clip-rule="evenodd" d="M18.4485 8.90848C18.2651 8.53685 17.7351 8.53685 17.5517 8.90848L15.1775 13.7192C15.1047 13.8668 14.9639 13.969 14.801 13.9927L9.49212 14.7641C9.08201 14.8237 8.91826 15.3277 9.21502 15.617L13.0566 19.3616C13.1744 19.4765 13.2282 19.642 13.2004 19.8042L12.2935 25.0916C12.2235 25.5001 12.6522 25.8116 13.019 25.6187L17.7674 23.1223C17.9131 23.0457 18.0871 23.0457 18.2328 23.1223L22.9812 25.6187C23.348 25.8116 23.7768 25.5001 23.7067 25.0916L22.7998 19.8042C22.772 19.642 22.8258 19.4765 22.9436 19.3616L26.7852 15.617C27.082 15.3277 26.9182 14.8237 26.5081 14.7641L21.1992 13.9927C21.0363 13.969 20.8955 13.8668 20.8227 13.7192L18.4485 8.90848Z" fill="#10A9A0"/>
<path fill-rule="evenodd" clip-rule="evenodd" d="M89.6822 7.38204C89.1308 7.22338 88.4533 7.14404 87.6496 7.14404C86.8552 7.14404 86.1777 7.22338 85.617 7.38204C85.0656 7.54071 84.617 7.81138 84.2712 8.19404C83.9255 8.56738 83.6778 9.07604 83.5283 9.72004C83.3788 10.364 83.304 11.1807 83.304 12.17C83.304 13.15 83.3788 13.9667 83.5283 14.62C83.6778 15.264 83.9255 15.7774 84.2712 16.16C84.617 16.5334 85.0656 16.7994 85.617 16.958C86.1777 17.1167 86.8552 17.196 87.6496 17.196C88.4533 17.196 89.1308 17.1167 89.6822 16.958C90.2335 16.7994 90.6821 16.5334 91.0279 16.16C91.3737 15.7774 91.6213 15.264 91.7708 14.62C91.9203 13.9667 91.9951 13.15 91.9951 12.17C91.9951 11.1807 91.9203 10.364 91.7708 9.72004C91.6213 9.07604 91.3737 8.56738 91.0279 8.19404C90.6821 7.81138 90.2335 7.54071 89.6822 7.38204ZM86.6823 9.39804C86.916 9.23004 87.2384 9.14604 87.6496 9.14604C88.0608 9.14604 88.3785 9.23004 88.6028 9.39804C88.8364 9.56604 88.9953 9.86938 89.0794 10.308C89.1728 10.7467 89.2196 11.3674 89.2196 12.17C89.2196 12.9727 89.1728 13.5934 89.0794 14.032C88.9953 14.4707 88.8364 14.774 88.6028 14.942C88.3785 15.11 88.0608 15.194 87.6496 15.194C87.2384 15.194 86.916 15.11 86.6823 14.942C86.458 14.774 86.2992 14.4707 86.2057 14.032C86.1123 13.5934 86.0655 12.9727 86.0655 12.17C86.0655 11.3674 86.1123 10.7467 86.2057 10.308C86.2992 9.86938 86.458 9.56604 86.6823 9.39804ZM43.0269 7.21404C42.6905 7.18604 42.2793 7.17204 41.7933 7.17204C40.756 7.17204 39.9243 7.33538 39.2981 7.66204C38.6814 7.97938 38.2328 8.50204 37.9524 9.23004C37.6814 9.95804 37.5459 10.938 37.5459 12.17C37.5459 13.402 37.6814 14.382 37.9524 15.11C38.2328 15.838 38.6814 16.3654 39.2981 16.692C39.9243 17.0094 40.756 17.168 41.7933 17.168C42.5223 17.168 43.1297 17.1354 43.6157 17.07C44.111 17.0047 44.5922 16.8927 45.0595 16.734L44.8633 14.816C44.4053 14.8627 43.9474 14.8954 43.4895 14.914C43.0409 14.9327 42.4755 14.942 41.7933 14.942C41.4102 14.942 41.1064 14.8627 40.8822 14.704C40.6672 14.5454 40.5177 14.2654 40.4336 13.864C40.3495 13.4627 40.3074 12.898 40.3074 12.17C40.3074 11.442 40.3495 10.8774 40.4336 10.476C40.5177 10.0747 40.6672 9.79471 40.8822 9.63604C41.1064 9.47738 41.4102 9.39804 41.7933 9.39804C42.2232 9.39804 42.5924 9.40271 42.9007 9.41204C43.2091 9.41204 43.4988 9.41671 43.7699 9.42604C44.0409 9.42604 44.3352 9.43538 44.653 9.45404L44.8492 7.52204C44.5502 7.43804 44.2558 7.37271 43.9661 7.32604C43.6857 7.27938 43.3727 7.24204 43.0269 7.21404ZM52.7649 7.46604C52.1948 7.28871 51.4565 7.20004 50.55 7.20004C49.9426 7.20004 49.4193 7.20471 48.98 7.21404C48.5501 7.21404 48.153 7.22338 47.7885 7.24204C47.424 7.26071 47.0362 7.29338 46.625 7.34004V17H49.2043V13.3474C49.5559 13.3494 49.9624 13.3536 50.4239 13.36C50.6949 13.36 50.9005 13.4114 51.0407 13.514C51.1808 13.6074 51.2836 13.8034 51.3491 14.102L52.0359 17H54.7975L53.9984 14.018C53.9237 13.654 53.7975 13.3694 53.62 13.164C53.4517 12.9494 53.2648 12.7954 53.0592 12.702C52.863 12.6087 52.6761 12.5527 52.4985 12.534V12.45C52.9845 12.394 53.3676 12.2634 53.648 12.058C53.9284 11.8434 54.1246 11.568 54.2368 11.232C54.3582 10.896 54.419 10.5227 54.419 10.112C54.419 9.35604 54.2835 8.77271 54.0125 8.36204C53.7508 7.94204 53.3349 7.64338 52.7649 7.46604ZM49.2043 11.456H50.494C50.8304 11.456 51.0874 11.4234 51.265 11.358C51.4519 11.2927 51.5827 11.176 51.6575 11.008C51.7322 10.8307 51.7696 10.588 51.7696 10.28C51.7696 9.96271 51.7322 9.72004 51.6575 9.55204C51.5827 9.38404 51.4519 9.26738 51.265 9.20204C51.0874 9.13671 50.8304 9.10404 50.494 9.10404C50.0286 9.10404 49.5987 9.10522 49.2043 9.10759V11.456ZM64.1973 7.34004L61.0012 13.8884V17H58.3658V13.9172L55.1557 7.34004H57.8752L59.277 10.616C59.3611 10.812 59.4218 11.0267 59.4592 11.26C59.5059 11.484 59.5526 11.6987 59.5994 11.904H59.7676C59.805 11.6987 59.847 11.4794 59.8938 11.246C59.9498 11.0127 60.0152 10.798 60.09 10.602L61.4778 7.34004H64.1973ZM71.5814 7.49404C71.03 7.29804 70.2684 7.20004 69.2965 7.20004C68.689 7.20004 68.1704 7.20471 67.7405 7.21404C67.3106 7.21404 66.9134 7.22338 66.549 7.24204C66.1845 7.26071 65.7967 7.29338 65.3855 7.34004V17H68.0209V13.5509C68.1175 13.5624 68.2157 13.5735 68.3152 13.584C68.7638 13.6214 69.2124 13.64 69.6609 13.64C70.5114 13.64 71.1889 13.5467 71.6936 13.36C72.1982 13.1734 72.558 12.8514 72.7729 12.394C72.9972 11.9274 73.1094 11.274 73.1094 10.434C73.1094 9.59404 72.9925 8.94071 72.7589 8.47404C72.5253 8.00738 72.1328 7.68071 71.5814 7.49404ZM68.0209 11.75H69.2404C69.5675 11.7407 69.8198 11.7034 69.9974 11.638C70.1749 11.5634 70.2964 11.4327 70.3618 11.246C70.4366 11.05 70.474 10.7794 70.474 10.434C70.474 10.0794 70.4366 9.80404 70.3618 9.60804C70.2964 9.41204 70.1749 9.28138 69.9974 9.21604C69.8198 9.14138 69.5675 9.10404 69.2404 9.10404C68.8035 9.10404 68.397 9.10513 68.0209 9.1073V11.75ZM79.4568 9.34204V17H76.8215V9.34204H74.0179V7.34004H76.8215H79.4568H82.2464V9.34204H79.4568Z" fill="#4B6AA8"/>
</svg>
