<svg width="60" height="60" viewBox="0 0 60 60" fill="none" xmlns="http://www.w3.org/2000/svg">
<path fill-rule="evenodd" clip-rule="evenodd" d="M21.9995 43C33.5974 43 42.9997 33.598 43 22C43.0003 10.402 33.5985 1 22.0005 1C10.4026 1 1.0003 10.402 1 22C0.999705 33.598 10.4015 43 21.9995 43ZM42.1437 30.8581C43.3372 28.148 43.9999 25.1514 44 22C44.0003 9.84974 34.1508 0 22.0006 0C9.8503 0 0.00030932 9.84974 7.28435e-09 22C-0.000309291 34.1503 9.84918 44 21.9994 44C25.1519 44 28.1496 43.3369 30.8605 42.1426C32.6922 43.6913 35.2329 43.9675 37.3174 42.9712L37.5592 43.213L53.1716 58.8258C54.7337 60.3879 57.2663 60.3879 58.8284 58.8258C60.3905 57.2637 60.3905 54.731 58.8284 53.1689L43.216 37.556L42.9737 37.3137C43.9689 35.2293 43.6923 32.6893 42.1437 30.8581ZM41.6647 31.8743C39.5408 36.0956 36.0976 39.5391 31.8766 41.6635C33.826 43.0209 36.5264 42.8304 38.2649 41.0918L41.0933 38.2633C42.832 36.5245 43.0225 33.8238 41.6647 31.8743ZM22.0002 39.0006C31.3894 39.0006 39.001 31.3892 39.0012 22.0001C39.0015 12.6109 31.3902 4.99951 22.0011 4.99951C12.6119 4.99951 5.00034 12.6109 5.0001 22.0001C4.99986 31.3892 12.6111 39.0006 22.0002 39.0006ZM22.0002 40.0006C31.9416 40.0006 40.001 31.9415 40.0012 22.0001C40.0015 12.0586 31.9426 3.99951 22.0011 3.99951C12.0597 3.99951 4.00036 12.0586 4.0001 22.0001C3.99985 31.9415 12.0588 40.0006 22.0002 40.0006ZM42.5089 38.2632L38.2663 42.5059L53.8787 58.1187C55.0503 59.2903 56.9498 59.2903 58.1213 58.1187C59.2929 56.9471 59.2929 55.0476 58.1213 53.876L42.5089 38.2632ZM17.3561 16.6464C17.1608 16.4512 16.8442 16.4512 16.649 16.6464C16.4537 16.8417 16.4537 17.1583 16.649 17.3536L21.2954 22L16.649 26.6464C16.4537 26.8417 16.4537 27.1583 16.649 27.3536C16.8442 27.5488 17.1608 27.5488 17.3561 27.3536L22.0025 22.7071L26.649 27.3536C26.8442 27.5488 27.1608 27.5488 27.3561 27.3536C27.5513 27.1583 27.5513 26.8417 27.3561 26.6464L22.7096 22L27.3561 17.3536C27.5513 17.1583 27.5513 16.8417 27.3561 16.6464C27.1608 16.4512 26.8442 16.4512 26.649 16.6464L22.0025 21.2929L17.3561 16.6464Z" fill="#4B6AA8"/>
</svg>
