<svg width="20" height="20" viewBox="0 0 20 20" fill="none" xmlns="http://www.w3.org/2000/svg">
<path d="M0 10C0 4.47715 4.47715 0 10 0C15.5228 0 20 4.47715 20 10C20 15.5228 15.5228 20 10 20C4.47715 20 0 15.5228 0 10Z" fill="#10A9A0"/>
<path fill-rule="evenodd" clip-rule="evenodd" d="M14.8536 6.16737C15.0488 6.39052 15.0488 6.75233 14.8536 6.97549L8.85355 13.8326C8.65829 14.0558 8.34171 14.0558 8.14645 13.8326L5.14645 10.4041C4.95118 10.1809 4.95118 9.8191 5.14645 9.59594C5.34171 9.37278 5.65829 9.37278 5.85355 9.59594L8.5 12.6204L14.1464 6.16737C14.3417 5.94421 14.6583 5.94421 14.8536 6.16737Z" fill="white"/>
</svg>
