<svg width="20" height="20" viewBox="0 0 20 20" fill="none" xmlns="http://www.w3.org/2000/svg">
<path d="M0 10C0 4.47715 4.47715 0 10 0C15.5228 0 20 4.47715 20 10C20 15.5228 15.5228 20 10 20C4.47715 20 0 15.5228 0 10Z" fill="#EDF0F8"/>
<path fill-rule="evenodd" clip-rule="evenodd" d="M11.0214 13.6036C10.5909 13.173 10.2494 12.646 10 12.02C9.75055 12.646 9.40908 13.173 8.97855 13.6036C7.97671 14.6054 6.57707 15 5 15L5 14C6.42293 14 7.52329 13.6446 8.27145 12.8964C9.01961 12.1483 9.5 10.9229 9.5 9C9.5 7.59805 7.2541 6 6 6L6 5L14 5L14 6C12.7459 6 10.5 7.59805 10.5 9C10.5 10.9229 10.9804 12.1483 11.7286 12.8964C12.4767 13.6446 13.5771 14 15 14L15 15C13.4229 15 12.0233 14.6054 11.0214 13.6036ZM10 7.5C10.3515 6.94134 10.8542 6.49436 11.483 6L8.517 6C9.14582 6.49436 9.64847 6.94134 10 7.5Z" fill="#4B6AA8"/>
</svg>
