<svg width="60" height="60" viewBox="0 0 60 60" fill="none" xmlns="http://www.w3.org/2000/svg">
<path fill-rule="evenodd" clip-rule="evenodd" d="M26.5 0C26.2556 0 26.047 0.176707 26.0068 0.417801L21.0068 30.4178C20.9826 30.5628 21.0235 30.711 21.1185 30.8232C21.2135 30.9353 21.353 31 21.5 31H25.886L20.0104 59.3987C19.961 59.6375 20.091 59.8771 20.3182 59.9658C20.5453 60.0544 20.8033 59.9663 20.9287 59.7572L38.9287 29.7572C39.0214 29.6028 39.0239 29.4104 38.9351 29.2537C38.8463 29.0969 38.6801 29 38.5 29H32.2721L44.9563 0.704528C45.0256 0.549824 45.0118 0.370516 44.9197 0.228213C44.8275 0.0859104 44.6695 0 44.5 0H26.5ZM22.0902 30L26.9236 1H43.7279L31.0437 29.2955C30.9744 29.4502 30.9882 29.6295 31.0803 29.7718C31.1725 29.9141 31.3305 30 31.5 30H37.6169L21.5862 56.7178L26.9896 30.6013C27.0201 30.454 26.9827 30.3009 26.8877 30.1843C26.7928 30.0677 26.6504 30 26.5 30H22.0902ZM22.2866 9.57813C15.3577 8.73117 9.46834 15.188 10.6692 21.8847C4.26662 23.3954 0 29.164 0 36C0 43.6349 5.41505 49.9308 12.9648 50.4636L12.9809 50.4648L12.9971 50.4649L19.0837 50.5C19.3599 50.5016 19.585 50.2791 19.5866 50.0029C19.5882 49.7268 19.3657 49.5016 19.0895 49.5L13.0192 49.465C6.04669 48.9646 1 43.1511 1 36C1 29.4222 5.19206 23.9826 11.3557 22.7588L11.8621 22.6583L11.7454 22.1554C10.3076 15.9556 15.7607 9.78789 22.1652 10.5707C22.4393 10.6042 22.6887 10.4092 22.7222 10.1351C22.7557 9.861 22.5607 9.61163 22.2866 9.57813ZM42.3724 12.2087C42.1078 12.1297 41.8293 12.2801 41.7503 12.5447C41.6712 12.8093 41.8217 13.0879 42.0863 13.1669C49.5577 15.3983 54.4063 23.0107 53.3503 30.6982L53.2979 31.0796L53.6532 31.2277C57.0477 32.6431 59 36.003 59 40C59 45.281 55.2136 49.5 50 49.5H29.4835C29.2073 49.5 28.9835 49.7239 28.9835 50C28.9835 50.2762 29.2073 50.5 29.4835 50.5H50C55.8321 50.5 60 45.7647 60 40C60 35.8102 58.001 32.1367 54.3882 30.4589C55.3054 22.4159 50.1983 14.546 42.3724 12.2087Z" fill="#4B6AA8"/>
</svg>
