<svg width="20" height="20" viewBox="0 0 20 20" fill="none" xmlns="http://www.w3.org/2000/svg">
<path d="M0 10C0 4.47715 4.47715 0 10 0C15.5228 0 20 4.47715 20 10C20 15.5228 15.5228 20 10 20C4.47715 20 0 15.5228 0 10Z" fill="#ED7358"/>
<path fill-rule="evenodd" clip-rule="evenodd" d="M9.35032 10L6.32484 6.97452C6.14544 6.79512 6.14544 6.50425 6.32484 6.32484V6.32484C6.50425 6.14544 6.79512 6.14544 6.97452 6.32484L10 9.35032L13.0255 6.32484C13.2049 6.14544 13.4958 6.14544 13.6752 6.32484V6.32484C13.8546 6.50425 13.8546 6.79512 13.6752 6.97452L10.6497 10L13.6752 13.0255C13.8546 13.2049 13.8546 13.4958 13.6752 13.6752V13.6752C13.4958 13.8546 13.2049 13.8546 13.0255 13.6752L10 10.6497L6.97452 13.6752C6.79512 13.8546 6.50425 13.8546 6.32484 13.6752V13.6752C6.14544 13.4958 6.14544 13.2049 6.32484 13.0255L9.35032 10Z" fill="white"/>
</svg>
