<svg width="20" height="20" viewBox="0 0 20 20" fill="none" xmlns="http://www.w3.org/2000/svg">
<path fill-rule="evenodd" clip-rule="evenodd" d="M10 20C15.5228 20 20 15.5228 20 10C20 4.47715 15.5228 0 10 0C4.47715 0 0 4.47715 0 10C0 15.5228 4.47715 20 10 20ZM12.2348 6.52821L10.4484 2.90849C10.265 2.53687 9.73504 2.53687 9.55163 2.90849L7.76519 6.52821C7.69236 6.67578 7.55158 6.77807 7.38873 6.80173L3.39413 7.38218C2.98402 7.44177 2.82026 7.94576 3.11702 8.23503L6.00754 11.0526C6.12538 11.1675 6.17916 11.333 6.15134 11.4951L5.46898 15.4736C5.39892 15.8821 5.82764 16.1935 6.19445 16.0007L9.76733 14.1223C9.91299 14.0457 10.087 14.0457 10.2327 14.1223L13.8055 16.0007C14.1724 16.1935 14.6011 15.8821 14.531 15.4736L13.8487 11.4952C13.8208 11.333 13.8746 11.1675 13.9925 11.0526L16.883 8.23503C17.1797 7.94576 17.016 7.44177 16.6059 7.38218L12.6113 6.80173C12.4484 6.77807 12.3076 6.67578 12.2348 6.52821Z" fill="#FFA800"/>
</svg>
