<svg width="8" height="8" viewBox="0 0 8 8" fill="none" xmlns="http://www.w3.org/2000/svg">
<path fill-rule="evenodd" clip-rule="evenodd" d="M3.35032 4L0.324841 0.974523C0.145436 0.795119 0.145436 0.504246 0.324841 0.324841C0.504246 0.145436 0.795118 0.145436 0.974523 0.324841L4 3.35032L7.02548 0.324841C7.20488 0.145436 7.49575 0.145436 7.67516 0.324841C7.85456 0.504246 7.85456 0.795119 7.67516 0.974524L4.64968 4L7.67516 7.02548C7.85456 7.20488 7.85456 7.49575 7.67516 7.67516C7.49575 7.85456 7.20488 7.85456 7.02548 7.67516L4 4.64968L0.974524 7.67516C0.795119 7.85456 0.504246 7.85456 0.324841 7.67516C0.145436 7.49575 0.145436 7.20488 0.324841 7.02548L3.35032 4Z" fill="none"/>
</svg>
