<svg width="20" height="20" viewBox="0 0 20 20" fill="none" xmlns="http://www.w3.org/2000/svg">
<path d="M0 10C0 4.47715 4.47715 0 10 0C15.5228 0 20 4.47715 20 10C20 15.5228 15.5228 20 10 20C4.47715 20 0 15.5228 0 10Z" fill="#EDF0F8"/>
<path fill-rule="evenodd" clip-rule="evenodd" d="M11 6L8 6V10L11 10C12.2816 9.99998 13 9.24301 13 8C13 6.75702 12.2816 6 11 6ZM8 11L11 11C11.0037 11 11.0075 11 11.0113 11C12.8298 11.0006 14 9.76914 14 8C14 6.23086 12.8298 4.99939 11.0113 5C10.0075 5.00034 8.00377 5 7 5V10L6.00064 10L6.00004 11L7 11V12H6V13H7V15H8V13H12V12H8V11Z" fill="#4B6AA8"/>
</svg>
