<svg width="36" height="46" viewBox="0 0 36 46" fill="none" xmlns="http://www.w3.org/2000/svg">
<path d="M36 18.4C36 32.242 18 46 18 46C18 46 0 32.242 0 18.4C0 8.23796 8.05887 0 18 0C27.9411 0 36 8.23796 36 18.4Z" fill="#ed7358"/>
<path fill-rule="evenodd" clip-rule="evenodd" d="M18 32C25.732 32 32 25.732 32 18C32 10.268 25.732 4 18 4C10.268 4 4 10.268 4 18C4 25.732 10.268 32 18 32ZM28 18C28 23.5228 23.5228 28 18 28C12.4772 28 8 23.5228 8 18C8 12.4772 12.4772 8 18 8C23.5228 8 28 12.4772 28 18ZM18.4484 10.9085L20.2348 14.5282C20.3076 14.6758 20.4484 14.7781 20.6113 14.8017L24.6059 15.3822C25.016 15.4418 25.1797 15.9458 24.883 16.235L21.9925 19.0526C21.8746 19.1675 21.8208 19.333 21.8487 19.4952L22.531 23.4736C22.6011 23.8821 22.1724 24.1935 21.8055 24.0007L18.2327 22.1223C18.087 22.0457 17.913 22.0457 17.7673 22.1223L14.1945 24.0007C13.8276 24.1935 13.3989 23.8821 13.469 23.4736L14.1513 19.4951C14.1792 19.333 14.1254 19.1675 14.0075 19.0526L11.117 16.235C10.8203 15.9458 10.984 15.4418 11.3941 15.3822L15.3887 14.8017C15.5516 14.7781 15.6924 14.6758 15.7652 14.5282L17.5516 10.9085C17.735 10.5369 18.265 10.5369 18.4484 10.9085Z" fill="white"/>
</svg>
